# xmcd CD database file
#
# Track frame offsets:
#	187
#	19462
#	39280
#	53010
#	63875
#	83052
#	100237
#	109480
#	123655
#	145360
#
# Disc length: 2264 seconds
#
# Revision: 2
# Processed by: cddbd v1.5.1PL2 Copyright (c) Steve Scherf et al.
# Submitted via: CD2WAV32(JP) R3.22
#
DISCID=8808d60a
DTITLE=BAKU - 聞こえる〜Poewr of Dreams〜
DYEAR=1991
DGENRE=J-POP(J)
TTITLE0=POEWR OF DREMS
TTITLE1=BLUE JEANS
TTITLE2=O.K.
TTITLE3=BOYS BE AMBITIOUS
TTITLE4=丘を越えて
TTITLE5=ぞうきん(リミックスバージョン)
TTITLE6=日曜日
TTITLE7=精一杯の想い(リミックスバージョン)
TTITLE8=生きる
TTITLE9=聞こえる
EXTD=
EXTT0=
EXTT1=
EXTT2=
EXTT3=
EXTT4=
EXTT5=
EXTT6=
EXTT7=
EXTT8=
EXTT9=
PLAYORDER=
